<svg id="Слой_1" data-name="Слой 1" xmlns="http://www.w3.org/2000/svg" viewBox="0 0 1913 779"><defs><style>.cls-1{fill:#0013ff;}</style></defs><polygon class="cls-1" points="409.15 313.81 390.02 313.81 370.9 313.81 351.77 313.81 351.77 332.93 332.65 332.93 332.65 352.06 332.65 371.18 351.77 371.18 351.77 390.31 370.9 390.31 390.02 390.31 409.15 390.31 409.15 371.18 428.27 371.18 428.27 352.06 428.27 332.93 409.15 332.93 409.15 313.81"/><polygon class="cls-1" points="294.4 390.31 294.4 409.43 294.4 428.56 313.52 428.56 313.52 409.43 313.52 390.31 313.52 371.18 294.4 371.18 294.4 390.31"/><polygon class="cls-1" points="428.27 447.68 428.27 428.56 409.15 428.56 409.15 447.68 390.02 447.68 390.02 428.56 370.9 428.56 370.9 447.68 351.77 447.68 351.77 428.56 332.65 428.56 332.65 447.68 313.52 447.68 313.52 466.81 332.65 466.81 332.65 485.93 351.77 485.93 370.9 485.93 390.02 485.93 409.15 485.93 428.27 485.93 428.27 466.81 447.4 466.81 447.4 447.68 428.27 447.68"/><path class="cls-1" d="M231.1,250.5V549.23H529.82V250.5ZM485.65,371.18v76.5H466.52v19.13H447.4v19.12H428.27v19.12H332.65V485.93H313.52V466.81H294.4V447.68H275.27V352.06H294.4V332.93h19.12V313.81h19.13V294.68h95.62v19.13H447.4v19.12h19.12v19.13h19.13Z"/><polygon class="cls-1" points="447.4 390.31 447.4 409.43 447.4 428.56 466.52 428.56 466.52 409.43 466.52 390.31 466.52 371.18 447.4 371.18 447.4 390.31"/><path class="cls-1" d="M634.87,425.61V251.55h27.85l56.45,78.33,56-78.33h27.35V425.61H775.12V293.33L726.63,359H710.72l-48.49-65.64V425.61Z"/><path class="cls-1" d="M972,425.61v-12.5h-12.5V400.62H947v-12.5H934.55V287.89H947v-12.5h12.5V262.9H972V250.31h75.15V262.9h12.5v12.49h12.58v12.5h12.5V313h-25.08v-12.5h-12.5V287.89h-12.5v-12.5H984.62v12.5H972v12.58h-12.5v75.07H972v12.58h12.58v12.5h50.07v-12.5h12.5V375.54h12.5V363H1022.2V338h62.57v87.65h-25.08v-25h-12.5v12.49h-12.5v12.5Z"/><path class="cls-1" d="M1118,425.61V250.31H1230.6V262.9h12.5v12.49h12.58v56.33H1243.1V344.3h-12.5v12.49h12.5v12.5h12.58v56.32H1230.6V381.79h-12.5v-12.5h-12.49v-12.5H1143v68.82Zm100.14-93.89v-12.5h12.5V287.89h-12.5v-12.5H1143v56.33Z"/><path class="cls-1" d="M1288.87,425.61V251.55h27.35V425.61Z"/><path class="cls-1" d="M1349.41,425.61V251.55h79.07c31.08,0,51.23,15.92,51.23,42.77,0,17.9-10,30.84-23.13,35.81,21.14,4,37.05,20.88,37.05,46.5,0,14.67-5.22,26.6-15.91,35.55-10.45,9-24.62,13.43-42.77,13.43Zm27.35-103.94h47c18.15,0,28.84-7.95,28.84-22.63s-10.69-22.38-28.84-22.38h-47Zm0,78.83H1430c21.14,0,34.07-10.2,34.07-27.85,0-17.16-12.43-26.86-34.07-26.86h-53.21Z"/><path class="cls-1" d="M1540.27,425.61v-12.5h-12.5V400.62h-12.49V375.54h25v12.58h12.5v12.5h62.65v-12.5h12.5V363h-12.5V350.55h-62.65V338h-25v-12.5h-12.49V275.39h12.49V262.9h12.5V250.31h87.65V262.9h12.5v12.49H1653v25.08h-25.08V287.89h-12.5v-12.5h-62.65v12.5h-12.5V313h12.5v12.49h62.65V338h25v12.59H1653v50.07h-12.58v12.49h-12.5v12.5Z"/><path class="cls-1" d="M901.36,426.06H836v-48h12v34.53h12.6V384.81h11.85v27.81h16.8V377.07h12Z"/><path class="cls-1" d="M836,370.73V316h12v20.72h53.29V350.1H848.07v20.63Z"/><path class="cls-1" d="M901.36,321l-65.7-28V280.12l65.7-28V266.4l-15.12,6.44v27.62l15.12,6.44Zm-26.23-24.73V277.13l-22.67,9.52Z"/><path class="cls-1" d="M634.43,550.05V499h7l28.82,37V499h7.88v51.08h-6.78L642.31,512.9v37.15Z"/><path class="cls-1" d="M715.13,550.05V499h36.34v7.37H723.15v12.77h23.06v7.37H723.15v16.19h29.26v7.38Z"/><path class="cls-1" d="M799.39,550.34,782,499h9l12.19,38.38,12.4-38.46h6.35l12.41,38.46L846.54,499h8.82l-17.44,51.37h-7.07l-12.12-38-12.19,38Z"/><path class="cls-1" d="M931.45,550.05V499h23.27c5.19,0,9.34,1.31,12.34,4a13.53,13.53,0,0,1,4.52,10.51,13.82,13.82,0,0,1-11.09,14.08l16,22.48h-9.7l-15.4-21.6h-12v21.6Zm8-28.68h14.74c5.84,0,9.27-2.7,9.27-7.59,0-4.67-3.43-7.44-9.27-7.44H939.47Z"/><path class="cls-1" d="M1009.22,550.05V499h36.34v7.37h-28.31v12.77h23.06v7.37h-23.06v16.19h29.26v7.38Z"/><path class="cls-1" d="M1075.54,550.05l22.33-51.38h7.73l22.33,51.38h-8.61l-5.54-12.7h-24.23l-5.47,12.7Zm16.78-19.78H1111l-9.34-21.45Z"/><path class="cls-1" d="M1160.17,550.05V499h8.1v43.7h27.15v7.38Z"/><path class="cls-1" d="M1228.61,550.05V499h8v51.08Z"/><path class="cls-1" d="M1270.12,499h41.81v7.37H1295v43.71h-8V506.34h-16.86Z"/><path class="cls-1" d="M1359.57,550.05V526.91L1339.8,499h9.34l14.59,20.65,14.6-20.65h9L1367.6,526.7v23.35Z"/><path class="cls-1" d="M1462.44,550.05V499h8.1v43.7h27.15v7.38Z"/><path class="cls-1" d="M1525.77,550.05l22.33-51.38h7.73l22.33,51.38h-8.61l-5.54-12.7h-24.23l-5.47,12.7Zm16.78-19.78h18.68l-9.34-21.45Z"/><path class="cls-1" d="M1610.4,550.05V499h23.21c9.12,0,15,4.67,15,12.54,0,5.26-2.92,9.06-6.79,10.52,6.2,1.16,10.87,6.12,10.87,13.64a12.92,12.92,0,0,1-4.67,10.43c-3.06,2.63-7.22,3.95-12.54,3.95Zm8-30.51h13.79c5.33,0,8.46-2.33,8.46-6.64s-3.13-6.56-8.46-6.56h-13.79Zm0,23.13H1634c6.21,0,10-3,10-8.17s-3.65-7.88-10-7.88h-15.61Z"/></svg>