<svg id="Слой_1" data-name="Слой 1" xmlns="http://www.w3.org/2000/svg" viewBox="0 0 490.31 490.31"><defs><style>.cls-1{fill:#0013ff;}</style></defs><polygon class="cls-1" points="292.24 103.9 260.85 103.9 229.46 103.9 198.07 103.9 198.07 135.29 166.68 135.29 166.68 166.68 166.68 198.07 198.07 198.07 198.07 229.46 229.46 229.46 260.85 229.46 292.24 229.46 292.24 198.07 323.63 198.07 323.63 166.68 323.63 135.29 292.24 135.29 292.24 103.9"/><polygon class="cls-1" points="103.9 229.46 103.9 260.85 103.9 292.24 135.29 292.24 135.29 260.85 135.29 229.46 135.29 198.07 103.9 198.07 103.9 229.46"/><polygon class="cls-1" points="323.63 323.63 323.63 292.24 292.24 292.24 292.24 323.63 260.85 323.63 260.85 292.24 229.46 292.24 229.46 323.63 198.07 323.63 198.07 292.24 166.68 292.24 166.68 323.63 135.29 323.63 135.29 355.02 166.68 355.02 166.68 386.42 198.07 386.42 229.46 386.42 260.85 386.42 292.24 386.42 323.63 386.42 323.63 355.02 355.02 355.02 355.02 323.63 323.63 323.63"/><path class="cls-1" d="M0,0V490.31H490.31V0ZM417.81,198.07V323.63h-31.4V355H355v31.4H323.63v31.39H166.68V386.42H135.29V355H103.9V323.63H72.51V166.68H103.9V135.29h31.39V103.9h31.39V72.51h157V103.9H355v31.39h31.39v31.39h31.4Z"/><polygon class="cls-1" points="355.02 229.46 355.02 260.85 355.02 292.24 386.42 292.24 386.42 260.85 386.42 229.46 386.42 198.07 355.02 198.07 355.02 229.46"/></svg>