<svg id="Слой_1" data-name="Слой 1" xmlns="http://www.w3.org/2000/svg" viewBox="0 0 1258.57 491.03"><defs><style>.cls-1{fill:#0013ff;}</style></defs><path class="cls-1" d="M115.44,271.3V97.24h27.85l56.45,78.33,55.94-78.33H283V271.3H255.68V139L207.2,204.66H191.28L142.79,139V271.3Z"/><path class="cls-1" d="M452.61,271.3V258.8h-12.5V246.3h-12.5V233.81H415.12V133.58h12.49v-12.5h12.5v-12.5h12.5V96h75.15v12.58h12.49v12.5h12.59v12.5h12.5v25.07H540.25V146.16H527.76V133.58h-12.5v-12.5H465.19v12.5H452.61v12.58h-12.5v75.07h12.5v12.58h12.58V246.3h50.07V233.81h12.5V221.23h12.49v-12.5H502.76V183.65h62.58V271.3H540.25v-25H527.76v12.5h-12.5v12.5Z"/><path class="cls-1" d="M598.53,271.3V96H711.17v12.58h12.49v12.5h12.59V177.4H723.66V190H711.17v12.5h12.49V215h12.59V271.3H711.17V227.47h-12.5V215h-12.5v-12.5H623.52V271.3Zm100.14-93.9V164.9h12.5V133.58h-12.5v-12.5H623.52V177.4Z"/><path class="cls-1" d="M769.44,271.3V97.24h27.35V271.3Z"/><path class="cls-1" d="M830,271.3V97.24h79.07c31.08,0,51.22,15.91,51.22,42.76,0,17.91-9.94,30.84-23.12,35.81,21.13,4,37.05,20.89,37.05,46.5,0,14.67-5.22,26.61-15.92,35.56-10.44,8.95-24.61,13.43-42.77,13.43Zm27.35-103.94h47c18.15,0,28.84-8,28.84-22.63s-10.69-22.38-28.84-22.38h-47Zm0,78.82h53.21c21.14,0,34.07-10.19,34.07-27.85,0-17.15-12.44-26.85-34.07-26.85H857.33Z"/><path class="cls-1" d="M1020.84,271.3V258.8h-12.5V246.3H995.85V221.23h25v12.58h12.5V246.3H1096V233.81h12.5V208.73H1096v-12.5h-62.65V183.65h-25v-12.5H995.85V121.08h12.49v-12.5h12.5V96h87.65v12.58H1121v12.5h12.58v25.08h-25.08V133.58H1096v-12.5h-62.65v12.5h-12.5v25.07h12.5v12.5H1096v12.5h25v12.58h12.58V246.3H1121v12.5h-12.5v12.5Z"/><path class="cls-1" d="M381.93,271.75H316.6v-48h12v34.53h12.6V230.5h11.85v27.81h16.8V222.75h12Z"/><path class="cls-1" d="M316.6,216.41V161.63h12v20.72h53.29v13.44H328.64v20.62Z"/><path class="cls-1" d="M381.93,166.68l-65.7-28V125.8l65.7-28v14.27l-15.12,6.44v27.63l15.12,6.43ZM355.7,142V122.82L333,132.33Z"/><path class="cls-1" d="M115,395.73V344.65h7l28.82,37v-37h7.88v51.08h-6.79l-29-37.14v37.14Z"/><path class="cls-1" d="M195.69,395.73V344.65H232V352H203.72v12.77h23.06v7.37H203.72v16.2H233v7.37Z"/><path class="cls-1" d="M280,396l-17.37-51.38h9L283.76,383l12.4-38.45h6.35L314.92,383l12.18-38.38h8.83L318.49,396h-7.08L299.3,358l-12.19,38Z"/><path class="cls-1" d="M412,395.73V344.65h23.28c5.18,0,9.34,1.32,12.33,4a13.52,13.52,0,0,1,4.53,10.51,13.83,13.83,0,0,1-11.09,14.09l16.05,22.47h-9.7L432,374.13H420v21.6Zm8-28.68h14.74c5.84,0,9.27-2.7,9.27-7.59,0-4.67-3.43-7.44-9.27-7.44H420Z"/><path class="cls-1" d="M489.79,395.73V344.65h36.34V352H497.82v12.77h23.05v7.37H497.82v16.2h29.26v7.37Z"/><path class="cls-1" d="M556.11,395.73l22.33-51.37h7.73l22.33,51.37h-8.61L594.34,383H570.12l-5.48,12.7ZM572.89,376h18.68l-9.34-21.45Z"/><path class="cls-1" d="M640.74,395.73V344.65h8.1v43.71H676v7.37Z"/><path class="cls-1" d="M709.17,395.73V344.65h8v51.08Z"/><path class="cls-1" d="M750.69,344.65H792.5V352H775.57v43.71h-8V352H750.69Z"/><path class="cls-1" d="M840.14,395.73V372.6l-19.78-28h9.35L844.3,365.3l14.59-20.65h9.05l-19.77,27.73v23.35Z"/><path class="cls-1" d="M943,395.73V344.65h8.1v43.71h27.14v7.37Z"/><path class="cls-1" d="M1006.33,395.73l22.34-51.37h7.73l22.33,51.37h-8.61l-5.55-12.7h-24.22l-5.48,12.7ZM1023.12,376h18.68l-9.34-21.45Z"/><path class="cls-1" d="M1091,395.73V344.65h23.2c9.13,0,15,4.67,15,12.55,0,5.26-2.92,9.05-6.79,10.51,6.2,1.17,10.87,6.13,10.87,13.65a12.93,12.93,0,0,1-4.67,10.43c-3.06,2.63-7.22,3.94-12.55,3.94Zm8-30.5h13.79c5.32,0,8.46-2.34,8.46-6.64s-3.14-6.57-8.46-6.57H1099Zm0,23.13h15.61c6.21,0,10-3,10-8.17s-3.65-7.88-10-7.88H1099Z"/></svg>